# This file uses centimeters as units for non-parametric coordinates.

mtllib 04_Wall_Boiler.mtl
g default
v 0.911392 -12.653880 37.316769
v 12.086153 -12.653880 37.316769
v 0.911392 12.653880 37.316769
v 12.086153 12.653880 37.316769
v 0.911392 12.653880 18.683224
v 12.086153 12.653880 18.683224
v 0.911392 -12.653880 18.683224
v 12.086153 -12.653880 18.683224
v -0.000000 -40.000000 40.000000
v -0.000000 -32.000000 40.000000
v -0.000000 -24.000000 40.000000
v -0.000000 -15.999999 40.000000
v -0.000000 -8.000000 40.000000
v 0.000000 -0.000000 40.000000
v 0.000000 8.000002 40.000000
v 0.000000 15.999999 40.000000
v 0.000000 24.000000 40.000000
v 0.000000 32.000004 40.000000
v 0.000000 40.000000 40.000000
v -0.000000 -40.000000 32.000000
v -0.000000 -32.000000 32.000000
v -0.000000 -24.000000 32.000000
v -0.000000 -15.999999 32.000000
v -0.000000 -8.000000 32.000000
v 0.000000 -0.000000 32.000000
v 0.000000 8.000002 32.000000
v 0.000000 15.999999 32.000000
v 0.000000 24.000000 32.000000
v 0.000000 32.000004 32.000000
v 0.000000 40.000000 32.000000
v -0.000000 -40.000000 24.000000
v -0.000000 -32.000000 24.000000
v -0.000000 -24.000000 24.000000
v -0.000000 -15.999999 24.000000
v -0.000000 -8.000000 24.000000
v 0.000000 -0.000000 24.000000
v 0.000000 8.000002 24.000000
v 0.000000 15.999999 24.000000
v 0.000000 24.000000 24.000000
v 0.000000 32.000004 24.000000
v 0.000000 40.000000 24.000000
v -0.000000 -40.000000 15.999999
v -0.000000 -32.000000 15.999999
v -0.000000 -24.000000 15.999999
v -0.000000 -15.999999 15.999999
v -0.000000 -8.000000 15.999999
v 0.000000 -0.000000 15.999999
v 0.000000 8.000002 15.999999
v 0.000000 15.999999 15.999999
v 0.000000 24.000000 15.999999
v 0.000000 32.000004 15.999999
v 0.000000 40.000000 15.999999
v -0.000000 -40.000000 8.000000
v -0.000000 -32.000000 8.000000
v -0.000000 -24.000000 8.000000
v -0.000000 -15.999999 8.000000
v -0.000000 -8.000000 8.000000
v 0.000000 -0.000000 8.000000
v 0.000000 8.000002 8.000000
v 0.000000 15.999999 8.000000
v 0.000000 24.000000 8.000000
v 0.000000 32.000004 8.000000
v 0.000000 40.000000 8.000000
v -0.000000 -40.000000 0.000000
v -0.000000 -32.000000 0.000000
v -0.000000 -24.000000 0.000000
v -0.000000 -15.999999 0.000000
v -0.000000 -8.000000 0.000000
v 0.000000 0.000000 0.000000
v 0.000000 8.000002 0.000000
v 0.000000 15.999999 0.000000
v 0.000000 24.000000 0.000000
v 0.000000 32.000004 0.000000
v 0.000000 40.000000 0.000000
v -0.000000 -40.000000 -8.000002
v -0.000000 -32.000000 -8.000002
v -0.000000 -24.000000 -8.000002
v -0.000000 -15.999999 -8.000002
v -0.000000 -8.000000 -8.000002
v -0.000000 0.000000 -8.000002
v 0.000000 8.000002 -8.000002
v 0.000000 15.999999 -8.000002
v 0.000000 24.000000 -8.000002
v 0.000000 32.000004 -8.000002
v 0.000000 40.000000 -8.000002
v -0.000000 -40.000000 -15.999999
v -0.000000 -32.000000 -15.999999
v -0.000000 -24.000000 -15.999999
v -0.000000 -15.999999 -15.999999
v -0.000000 -8.000000 -15.999999
v -0.000000 0.000000 -15.999999
v 0.000000 8.000002 -15.999999
v 0.000000 15.999999 -15.999999
v 0.000000 24.000000 -15.999999
v 0.000000 32.000004 -15.999999
v 0.000000 40.000000 -15.999999
v -0.000000 -40.000000 -24.000000
v -0.000000 -32.000000 -24.000000
v -0.000000 -24.000000 -24.000000
v -0.000000 -15.999999 -24.000000
v -0.000000 -8.000000 -24.000000
v -0.000000 0.000000 -24.000000
v 0.000000 8.000002 -24.000000
v 0.000000 15.999999 -24.000000
v 0.000000 24.000000 -24.000000
v 0.000000 32.000004 -24.000000
v 0.000000 40.000000 -24.000000
v -0.000000 -40.000000 -32.000004
v -0.000000 -32.000000 -32.000004
v -0.000000 -24.000000 -32.000004
v -0.000000 -15.999999 -32.000004
v -0.000000 -8.000000 -32.000004
v -0.000000 0.000000 -32.000004
v 0.000000 8.000002 -32.000004
v 0.000000 15.999999 -32.000004
v 0.000000 24.000000 -32.000004
v 0.000000 32.000004 -32.000004
v 0.000000 40.000000 -32.000004
v -0.000000 -40.000000 -40.000000
v -0.000000 -32.000000 -40.000000
v -0.000000 -24.000000 -40.000000
v -0.000000 -15.999999 -40.000000
v -0.000000 -8.000000 -40.000000
v -0.000000 0.000000 -40.000000
v 0.000000 8.000002 -40.000000
v 0.000000 15.999999 -40.000000
v 0.000000 24.000000 -40.000000
v 0.000000 32.000004 -40.000000
v 0.000000 40.000000 -40.000000
v 4.099925 -32.000000 32.000000
v 4.099925 -24.000000 32.000000
v 4.099925 -24.000000 24.000000
v 4.099925 -32.000000 24.000000
v 4.099925 24.000000 32.000000
v 4.099925 32.000004 32.000000
v 4.099925 32.000004 24.000000
v 4.099925 24.000000 24.000000
v 8.897620 -32.000000 32.000000
v 8.897620 -24.000000 32.000000
v 8.897620 -24.000000 24.000000
v 8.897620 -32.000000 24.000000
v 8.897620 24.000000 32.000000
v 8.897620 32.000004 32.000000
v 8.897620 32.000004 24.000000
v 8.897620 24.000000 24.000000
vt 0.774727 0.001992
vt 0.867765 0.001992
vt 0.867765 0.212698
vt 0.774727 0.212698
vt 0.675530 0.001992
vt 0.768569 0.001992
vt 0.768569 0.212698
vt 0.675530 0.212698
vt 0.821705 0.216605
vt 0.976843 0.216605
vt 0.976843 0.427311
vt 0.821705 0.427311
vt 0.660561 0.671959
vt 0.815699 0.671959
vt 0.815699 0.882666
vt 0.660561 0.882666
vt 0.668010 0.001992
vt 0.668010 0.068598
vt 0.601404 0.068598
vt 0.601404 0.001992
vt 0.668010 0.135204
vt 0.601404 0.135204
vt 0.534798 0.068598
vt 0.534798 0.001992
vt 0.668010 0.201810
vt 0.601404 0.201810
vt 0.468192 0.068598
vt 0.468192 0.001992
vt 0.668010 0.268416
vt 0.601404 0.268416
vt 0.534798 0.201810
vt 0.534798 0.135204
vt 0.468192 0.135204
vt 0.401586 0.068598
vt 0.401586 0.001992
vt 0.668010 0.335022
vt 0.601404 0.335022
vt 0.534798 0.268416
vt 0.468192 0.201810
vt 0.401586 0.135204
vt 0.334980 0.068598
vt 0.334980 0.001992
vt 0.668010 0.401628
vt 0.601404 0.401628
vt 0.534798 0.335022
vt 0.468192 0.268416
vt 0.401586 0.201810
vt 0.334980 0.135204
vt 0.268374 0.068598
vt 0.268374 0.001992
vt 0.668010 0.468234
vt 0.601404 0.468234
vt 0.534798 0.401628
vt 0.468192 0.335022
vt 0.401586 0.268416
vt 0.334980 0.201810
vt 0.268374 0.135204
vt 0.201768 0.068598
vt 0.201768 0.001992
vt 0.668010 0.534840
vt 0.601404 0.534840
vt 0.534798 0.468234
vt 0.468192 0.401628
vt 0.401586 0.335022
vt 0.334980 0.268416
vt 0.268374 0.201810
vt 0.201768 0.135204
vt 0.135162 0.068598
vt 0.135162 0.001992
vt 0.668010 0.601446
vt 0.601404 0.601446
vt 0.534798 0.534840
vt 0.468192 0.468234
vt 0.401586 0.401628
vt 0.334980 0.335022
vt 0.268374 0.268416
vt 0.201768 0.201810
vt 0.135162 0.135204
vt 0.068556 0.068598
vt 0.068556 0.001992
vt 0.668010 0.668052
vt 0.601404 0.668052
vt 0.468192 0.534840
vt 0.401586 0.468234
vt 0.334980 0.401628
vt 0.268374 0.335022
vt 0.201768 0.268416
vt 0.135162 0.201810
vt 0.068556 0.135204
vt 0.001950 0.068598
vt 0.001950 0.001992
vt 0.534798 0.668052
vt 0.534798 0.601446
vt 0.468192 0.601446
vt 0.401586 0.534840
vt 0.334980 0.468234
vt 0.268374 0.401628
vt 0.201768 0.335022
vt 0.135162 0.268416
vt 0.068556 0.201810
vt 0.001950 0.135204
vt 0.468192 0.668052
vt 0.401586 0.601446
vt 0.334980 0.534840
vt 0.268374 0.468234
vt 0.201768 0.401628
vt 0.135162 0.335022
vt 0.068556 0.268416
vt 0.001950 0.201810
vt 0.401586 0.668052
vt 0.334980 0.601446
vt 0.268374 0.534840
vt 0.201768 0.468234
vt 0.135162 0.401628
vt 0.068556 0.335022
vt 0.001950 0.268416
vt 0.334980 0.668052
vt 0.268374 0.601446
vt 0.201768 0.534840
vt 0.135162 0.468234
vt 0.068556 0.401628
vt 0.001950 0.335022
vt 0.268374 0.668052
vt 0.201768 0.601446
vt 0.135162 0.534840
vt 0.068556 0.468234
vt 0.001950 0.401628
vt 0.201768 0.668052
vt 0.135162 0.601446
vt 0.068556 0.534840
vt 0.001950 0.468234
vt 0.135162 0.668052
vt 0.068556 0.601446
vt 0.001950 0.534840
vt 0.068556 0.668052
vt 0.001950 0.601446
vt 0.001950 0.668052
vt 0.129252 0.671959
vt 0.129252 0.738565
vt 0.062646 0.738565
vt 0.062646 0.671959
vt 0.173518 0.833030
vt 0.018379 0.833030
vt 0.610290 0.766424
vt 0.610290 0.833030
vt 0.543684 0.833030
vt 0.543684 0.766424
vt 0.499418 0.671959
vt 0.654556 0.671959
vt 0.392786 0.833030
vt 0.392786 0.766424
vt 0.426921 0.766424
vt 0.426921 0.833030
vt 0.466865 0.766424
vt 0.466865 0.833030
vt 0.400374 0.671959
vt 0.493412 0.671959
vt 0.700330 0.953178
vt 0.700330 0.886572
vt 0.734465 0.886572
vt 0.734465 0.953178
vt 0.001950 0.903543
vt 0.001950 0.836937
vt 0.036085 0.836937
vt 0.036085 0.903543
vt 0.076029 0.836937
vt 0.076029 0.903543
vt 0.102576 0.998008
vt 0.009538 0.998008
vt 0.576174 0.911017
vt 0.509568 0.911017
vt 0.509568 0.876882
vt 0.576174 0.876882
vt 0.509568 0.836937
vt 0.576174 0.836937
vt 0.286154 0.738565
vt 0.286154 0.671959
vt 0.320289 0.671959
vt 0.320289 0.738565
vt 0.360234 0.671959
vt 0.360234 0.738565
vt 0.386781 0.833030
vt 0.293743 0.833030
vt 0.650571 0.911017
vt 0.583965 0.911017
vt 0.583965 0.876882
vt 0.650571 0.876882
vt 0.583965 0.836937
vt 0.650571 0.836937
vt 0.179523 0.833030
vt 0.179523 0.766424
vt 0.213658 0.766424
vt 0.213658 0.833030
vt 0.253602 0.766424
vt 0.253602 0.833030
vt 0.187111 0.671959
vt 0.280149 0.671959
vt 0.658362 0.953178
vt 0.658362 0.886572
vt 0.692497 0.886572
vt 0.692497 0.953178
vt 0.108967 0.992076
vt 0.108967 0.836937
vt 0.202006 0.836937
vt 0.202006 0.992076
vt 0.208164 0.992075
vt 0.208164 0.836937
vt 0.301202 0.836937
vt 0.301202 0.992075
vt 0.307360 0.947809
vt 0.307360 0.881203
vt 0.401825 0.836937
vt 0.401825 0.992075
vt 0.502929 0.881203
vt 0.502929 0.947809
vt 0.408464 0.992075
vt 0.408464 0.836937
vn 0.000000 0.000000 1.000000
vn 0.000000 0.000000 1.000000
vn 0.000000 0.000000 1.000000
vn 0.000000 0.000000 1.000000
vn 0.000000 0.000000 -1.000000
vn 0.000000 0.000000 -1.000000
vn 0.000000 0.000000 -1.000000
vn 0.000000 0.000000 -1.000000
vn 1.000000 0.000000 0.000000
vn 1.000000 0.000000 0.000000
vn 1.000000 0.000000 0.000000
vn 1.000000 0.000000 0.000000
vn -1.000000 0.000000 0.000000
vn -1.000000 0.000000 0.000000
vn -1.000000 0.000000 0.000000
vn -1.000000 0.000000 0.000000
vn -1.000000 0.000000 0.000000
vn -1.000000 0.000000 0.000000
vn -1.000000 0.000000 0.000000
vn -1.000000 0.000000 0.000000
vn -1.000000 0.000000 0.000000
vn -1.000000 0.000000 0.000000
vn -1.000000 0.000000 0.000000
vn -1.000000 0.000000 0.000000
vn -1.000000 0.000000 0.000000
vn -1.000000 0.000000 0.000000
vn -1.000000 0.000000 0.000000
vn -1.000000 0.000000 0.000000
vn -1.000000 0.000000 0.000000
vn -1.000000 0.000000 0.000000
vn -1.000000 0.000000 0.000000
vn -1.000000 0.000000 0.000000
vn -1.000000 0.000000 0.000000
vn -1.000000 0.000000 0.000000
vn -1.000000 0.000000 0.000000
vn -1.000000 0.000000 0.000000
vn -1.000000 0.000000 0.000000
vn -1.000000 0.000000 0.000000
vn -1.000000 0.000000 0.000000
vn -1.000000 0.000000 0.000000
vn -1.000000 0.000000 0.000000
vn -1.000000 0.000000 0.000000
vn -1.000000 0.000000 0.000000
vn -1.000000 0.000000 0.000000
vn -1.000000 0.000000 0.000000
vn -1.000000 0.000000 0.000000
vn -1.000000 0.000000 0.000000
vn -1.000000 0.000000 0.000000
vn -1.000000 0.000000 0.000000
vn -1.000000 0.000000 0.000000
vn -1.000000 0.000000 0.000000
vn -1.000000 0.000000 0.000000
vn -1.000000 0.000000 0.000000
vn -1.000000 0.000000 0.000000
vn -1.000000 0.000000 0.000000
vn -1.000000 0.000000 0.000000
vn -1.000000 0.000000 0.000000
vn -1.000000 0.000000 0.000000
vn -1.000000 0.000000 0.000000
vn -1.000000 0.000000 0.000000
vn -1.000000 0.000000 0.000000
vn -1.000000 0.000000 0.000000
vn -1.000000 0.000000 0.000000
vn -1.000000 0.000000 0.000000
vn -1.000000 0.000000 0.000000
vn -1.000000 0.000000 0.000000
vn -1.000000 0.000000 0.000000
vn -1.000000 0.000000 0.000000
vn -1.000000 0.000000 0.000000
vn -1.000000 0.000000 0.000000
vn -1.000000 0.000000 0.000000
vn -1.000000 0.000000 0.000000
vn -1.000000 0.000000 0.000000
vn -1.000000 0.000000 0.000000
vn -1.000000 0.000000 0.000000
vn -1.000000 0.000000 0.000000
vn -1.000000 0.000000 0.000000
vn -1.000000 0.000000 0.000000
vn -1.000000 0.000000 0.000000
vn -1.000000 0.000000 0.000000
vn -1.000000 0.000000 0.000000
vn -1.000000 0.000000 0.000000
vn -1.000000 0.000000 0.000000
vn -1.000000 0.000000 0.000000
vn -1.000000 0.000000 0.000000
vn -1.000000 0.000000 0.000000
vn -1.000000 0.000000 0.000000
vn -1.000000 0.000000 0.000000
vn -1.000000 0.000000 0.000000
vn -1.000000 0.000000 0.000000
vn -1.000000 0.000000 0.000000
vn -1.000000 0.000000 0.000000
vn -1.000000 0.000000 0.000000
vn -1.000000 0.000000 0.000000
vn -1.000000 0.000000 0.000000
vn -1.000000 0.000000 0.000000
vn -1.000000 0.000000 0.000000
vn -1.000000 0.000000 0.000000
vn -1.000000 0.000000 0.000000
vn -1.000000 0.000000 0.000000
vn -1.000000 0.000000 0.000000
vn -1.000000 0.000000 0.000000
vn -1.000000 0.000000 0.000000
vn -1.000000 0.000000 0.000000
vn -1.000000 0.000000 0.000000
vn -1.000000 0.000000 0.000000
vn -1.000000 0.000000 0.000000
vn -1.000000 0.000000 0.000000
vn -1.000000 0.000000 0.000000
vn -1.000000 0.000000 0.000000
vn -1.000000 0.000000 0.000000
vn -1.000000 0.000000 0.000000
vn -1.000000 0.000000 0.000000
vn -1.000000 0.000000 0.000000
vn -1.000000 0.000000 0.000000
vn -1.000000 0.000000 0.000000
vn -1.000000 0.000000 0.000000
vn -1.000000 0.000000 0.000000
vn -1.000000 0.000000 0.000000
vn -1.000000 0.000000 0.000000
vn -1.000000 0.000000 0.000000
vn -1.000000 0.000000 0.000000
vn -1.000000 0.000000 0.000000
vn -1.000000 0.000000 0.000000
vn -1.000000 0.000000 0.000000
vn -1.000000 0.000000 0.000000
vn -1.000000 0.000000 0.000000
vn -1.000000 0.000000 0.000000
vn -1.000000 0.000000 0.000000
vn -1.000000 0.000000 0.000000
vn -1.000000 0.000000 0.000000
vn -1.000000 0.000000 0.000000
vn -1.000000 0.000000 0.000000
vn -1.000000 0.000000 0.000000
vn -1.000000 0.000000 0.000000
vn -1.000000 0.000000 0.000000
vn -1.000000 0.000000 0.000000
vn -1.000000 0.000000 0.000000
vn -1.000000 0.000000 0.000000
vn -1.000000 0.000000 0.000000
vn -1.000000 0.000000 0.000000
vn -1.000000 0.000000 0.000000
vn -1.000000 0.000000 0.000000
vn -1.000000 0.000000 0.000000
vn -1.000000 0.000000 0.000000
vn 0.000000 0.000000 -1.000000
vn 0.000000 0.000000 -1.000000
vn 0.000000 0.000000 -1.000000
vn 0.000000 0.000000 -1.000000
vn 0.000000 -1.000000 0.000000
vn 0.000000 -1.000000 0.000000
vn 0.000000 -1.000000 0.000000
vn 0.000000 -1.000000 0.000000
vn 0.000000 0.000000 1.000000
vn 0.000000 0.000000 1.000000
vn 0.000000 0.000000 1.000000
vn 0.000000 0.000000 1.000000
vn 0.000000 1.000000 0.000000
vn 0.000000 1.000000 0.000000
vn 0.000000 1.000000 0.000000
vn 0.000000 1.000000 0.000000
vn 0.000000 0.000000 -1.000000
vn 0.000000 0.000000 -1.000000
vn 0.000000 0.000000 -1.000000
vn 0.000000 0.000000 -1.000000
vn 0.000000 -1.000000 0.000000
vn 0.000000 -1.000000 0.000000
vn 0.000000 -1.000000 0.000000
vn 0.000000 -1.000000 0.000000
vn 0.000000 0.000000 1.000000
vn 0.000000 0.000000 1.000000
vn 0.000000 0.000000 1.000000
vn 0.000000 0.000000 1.000000
vn 0.000000 1.000000 0.000000
vn 0.000000 1.000000 0.000000
vn 0.000000 1.000000 0.000000
vn 0.000000 1.000000 0.000000
vn 0.000000 0.000000 -1.000000
vn 0.000000 0.000000 -1.000000
vn 0.000000 -1.000000 0.000000
vn 0.000000 -1.000000 0.000000
vn 0.000000 -1.000000 0.000000
vn 0.000000 -1.000000 0.000000
vn 0.000000 0.000000 1.000000
vn 0.000000 0.000000 1.000000
vn 0.000000 1.000000 0.000000
vn 0.000000 1.000000 0.000000
vn 0.000000 0.000000 -1.000000
vn 0.000000 0.000000 -1.000000
vn 0.000000 -1.000000 0.000000
vn 0.000000 -1.000000 0.000000
vn 0.000000 0.000000 1.000000
vn 0.000000 0.000000 1.000000
vn 0.000000 1.000000 0.000000
vn 0.000000 1.000000 0.000000
vn 0.000000 1.000000 0.000000
vn 0.000000 1.000000 0.000000
vn 0.962708 0.270544 0.000000
vn 0.962708 0.270544 0.000000
vn 0.962708 0.270544 0.000000
vn 0.962708 0.270544 0.000000
vn 0.000000 0.424322 0.905512
vn 0.000000 0.424322 0.905512
vn 0.000000 0.424322 0.905512
vn 0.000000 0.424322 0.905512
vn -0.962708 0.270544 0.000000
vn -0.962708 0.270544 0.000000
vn -0.962708 0.270544 0.000000
vn -0.962708 0.270544 0.000000
vn 0.000000 0.424321 -0.905512
vn 0.000000 0.424321 -0.905512
vn 0.000000 0.424321 -0.905512
vn 0.000000 0.424321 -0.905512
vn 0.962708 -0.270544 0.000000
vn 0.962708 -0.270544 0.000000
vn 0.962708 -0.270544 0.000000
vn 0.962708 -0.270544 0.000000
vn 0.000000 -0.424321 -0.905512
vn 0.000000 -0.424321 -0.905512
vn 0.000000 -0.424321 -0.905512
vn 0.000000 -0.424321 -0.905512
vn -0.962708 -0.270544 0.000000
vn -0.962708 -0.270544 0.000000
vn -0.962708 -0.270544 0.000000
vn -0.962708 -0.270544 0.000000
vn 0.000000 -0.424322 0.905512
vn 0.000000 -0.424322 0.905512
vn 0.000000 -0.424322 0.905512
vn 0.000000 -0.424322 0.905512
s off
g polySurface6
usemtl initialShadingGroup
f 1/1/1 2/2/2 4/3/3 3/4/4
f 5/5/5 6/6/6 8/7/7 7/8/8
f 2/9/9 8/10/10 6/11/11 4/12/12
f 7/13/13 1/14/14 3/15/15 5/16/16
s 1
f 9/17/17 10/18/18 21/19/19 20/20/20
f 10/18/18 11/21/21 22/22/22 21/19/19
f 11/21/21 12/25/23 23/26/24 22/22/22
f 12/25/23 13/29/25 24/30/26 23/26/24
f 13/29/25 14/36/27 25/37/28 24/30/26
f 14/36/27 15/43/29 26/44/30 25/37/28
f 15/43/29 16/51/31 27/52/32 26/44/30
f 16/51/31 17/60/33 28/61/34 27/52/32
f 17/60/33 18/70/35 29/71/36 28/61/34
f 18/70/35 19/81/37 30/82/38 29/71/36
f 20/20/20 21/19/19 32/23/39 31/24/40
s off
f 138/138/41 139/139/42 140/140/43 141/141/44
s 1
f 22/22/22 23/26/24 34/31/45 33/32/46
f 23/26/24 24/30/26 35/38/47 34/31/45
f 24/30/26 25/37/28 36/45/48 35/38/47
f 25/37/28 26/44/30 37/53/49 36/45/48
f 26/44/30 27/52/32 38/62/50 37/53/49
f 27/52/32 28/61/34 39/72/51 38/62/50
s off
f 142/144/52 143/145/53 144/146/54 145/147/55
s 1
f 29/71/36 30/82/38 41/92/56 40/93/57
f 31/24/40 32/23/39 43/27/58 42/28/59
f 32/23/39 33/32/46 44/33/60 43/27/58
f 33/32/46 34/31/45 45/39/61 44/33/60
f 34/31/45 35/38/47 46/46/62 45/39/61
f 35/38/47 36/45/48 47/54/63 46/46/62
f 36/45/48 37/53/49 48/63/64 47/54/63
f 37/53/49 38/62/50 49/73/65 48/63/64
f 38/62/50 39/72/51 50/83/66 49/73/65
f 39/72/51 40/93/57 51/94/67 50/83/66
f 40/93/57 41/92/56 52/102/68 51/94/67
f 42/28/59 43/27/58 54/34/69 53/35/70
f 43/27/58 44/33/60 55/40/71 54/34/69
f 44/33/60 45/39/61 56/47/72 55/40/71
f 45/39/61 46/46/62 57/55/73 56/47/72
f 46/46/62 47/54/63 58/64/74 57/55/73
f 47/54/63 48/63/64 59/74/75 58/64/74
f 48/63/64 49/73/65 60/84/76 59/74/75
f 49/73/65 50/83/66 61/95/77 60/84/76
f 50/83/66 51/94/67 62/103/78 61/95/77
f 51/94/67 52/102/68 63/110/79 62/103/78
f 53/35/70 54/34/69 65/41/80 64/42/81
f 54/34/69 55/40/71 66/48/82 65/41/80
f 55/40/71 56/47/72 67/56/83 66/48/82
f 56/47/72 57/55/73 68/65/84 67/56/83
f 57/55/73 58/64/74 69/75/85 68/65/84
f 58/64/74 59/74/75 70/85/86 69/75/85
f 59/74/75 60/84/76 71/96/87 70/85/86
f 60/84/76 61/95/77 72/104/88 71/96/87
f 61/95/77 62/103/78 73/111/89 72/104/88
f 62/103/78 63/110/79 74/117/90 73/111/89
f 64/42/81 65/41/80 76/49/91 75/50/92
f 65/41/80 66/48/82 77/57/93 76/49/91
f 66/48/82 67/56/83 78/66/94 77/57/93
f 67/56/83 68/65/84 79/76/95 78/66/94
f 68/65/84 69/75/85 80/86/96 79/76/95
f 69/75/85 70/85/86 81/97/97 80/86/96
f 70/85/86 71/96/87 82/105/98 81/97/97
f 71/96/87 72/104/88 83/112/99 82/105/98
f 72/104/88 73/111/89 84/118/100 83/112/99
f 73/111/89 74/117/90 85/123/101 84/118/100
f 75/50/92 76/49/91 87/58/102 86/59/103
f 76/49/91 77/57/93 88/67/104 87/58/102
f 77/57/93 78/66/94 89/77/105 88/67/104
f 78/66/94 79/76/95 90/87/106 89/77/105
f 79/76/95 80/86/96 91/98/107 90/87/106
f 80/86/96 81/97/97 92/106/108 91/98/107
f 81/97/97 82/105/98 93/113/109 92/106/108
f 82/105/98 83/112/99 94/119/110 93/113/109
f 83/112/99 84/118/100 95/124/111 94/119/110
f 84/118/100 85/123/101 96/128/112 95/124/111
f 86/59/103 87/58/102 98/68/113 97/69/114
f 87/58/102 88/67/104 99/78/115 98/68/113
f 88/67/104 89/77/105 100/88/116 99/78/115
f 89/77/105 90/87/106 101/99/117 100/88/116
f 90/87/106 91/98/107 102/107/118 101/99/117
f 91/98/107 92/106/108 103/114/119 102/107/118
f 92/106/108 93/113/109 104/120/120 103/114/119
f 93/113/109 94/119/110 105/125/121 104/120/120
f 94/119/110 95/124/111 106/129/122 105/125/121
f 95/124/111 96/128/112 107/132/123 106/129/122
f 97/69/114 98/68/113 109/79/124 108/80/125
f 98/68/113 99/78/115 110/89/126 109/79/124
f 99/78/115 100/88/116 111/100/127 110/89/126
f 100/88/116 101/99/117 112/108/128 111/100/127
f 101/99/117 102/107/118 113/115/129 112/108/128
f 102/107/118 103/114/119 114/121/130 113/115/129
f 103/114/119 104/120/120 115/126/131 114/121/130
f 104/120/120 105/125/121 116/130/132 115/126/131
f 105/125/121 106/129/122 117/133/133 116/130/132
f 106/129/122 107/132/123 118/135/134 117/133/133
f 108/80/125 109/79/124 120/90/135 119/91/136
f 109/79/124 110/89/126 121/101/137 120/90/135
f 110/89/126 111/100/127 122/109/138 121/101/137
f 111/100/127 112/108/128 123/116/139 122/109/138
f 112/108/128 113/115/129 124/122/140 123/116/139
f 113/115/129 114/121/130 125/127/141 124/122/140
f 114/121/130 115/126/131 126/131/142 125/127/141
f 115/126/131 116/130/132 127/134/143 126/131/142
f 116/130/132 117/133/133 128/136/144 127/134/143
f 117/133/133 118/135/134 129/137/145 128/136/144
s 2
f 21/150/146 22/151/147 131/152/148 130/153/149
s off
f 22/158/150 33/159/151 132/160/152 131/161/153
s 3
f 33/162/154 32/163/155 133/164/156 132/165/157
s 4
f 32/170/158 21/171/159 130/172/160 133/173/161
s 5
f 28/176/162 29/177/163 135/178/164 134/179/165
s 6
f 29/184/166 40/185/167 136/186/168 135/187/169
s 7
f 40/190/170 39/191/171 137/192/172 136/193/173
s off
f 39/198/174 28/199/175 134/200/176 137/201/177
s 2
f 130/153/149 131/152/148 139/154/178 138/155/179
s off
f 1/202/180 7/203/181 8/204/182 2/205/183
s 3
f 132/165/157 133/164/156 141/166/184 140/167/185
s 4
f 133/173/161 130/172/160 138/174/186 141/175/187
s 5
f 134/179/165 135/178/164 143/180/188 142/181/189
s 6
f 135/187/169 136/186/168 144/188/190 143/189/191
s 7
f 136/193/173 137/192/172 145/194/192 144/195/193
s off
f 5/206/194 3/207/195 4/208/196 6/209/197
f 131/210/198 132/211/199 7/212/200 1/213/201
f 132/165/202 140/167/203 8/168/204 7/169/205
f 140/140/206 139/139/207 2/142/208 8/143/209
f 139/154/210 131/152/211 1/156/212 2/157/213
f 137/214/214 134/215/215 3/216/216 5/217/217
f 134/179/218 142/181/219 4/182/220 3/183/221
f 142/144/222 145/147/223 6/148/224 4/149/225
f 145/194/226 137/192/227 5/196/228 6/197/229
